<svg xmlns="http://www.w3.org/2000/svg" viewBox="0 0 1033 983.22"><defs><style>.cls-1{fill:#d60000;}</style></defs><g id="Camada_2" data-name="Camada 2"><g id="Camada_1-2" data-name="Camada 1"><g id="isq"><path class="cls-1" d="M0,490.81c.39-24.09.61-44.49,1.11-64.89q.51-20.84,1.69-41.67c.87-15.18,2-30.34,3.24-45.5,1-13.28,2.11-26.56,3.55-39.8,1.57-14.43,3.45-28.84,5.47-43.22,1.89-13.53,3.93-27,6.28-40.51A143.6,143.6,0,0,1,42.56,162c15.08-23.46,35.19-41.88,58.08-57.46C122.05,90,145.12,78.49,168.76,68.08c40.5-17.84,82.5-31.21,125.59-41.07q29-6.65,58.32-11.84c16-2.86,32.22-4.89,48.37-7,13.2-1.71,26.44-3.2,39.69-4.38A872.19,872.19,0,0,1,547.46.43c16.23.55,32.47,1.44,48.66,2.81s32.06,3.39,48.06,5.4c36.56,4.61,72.55,12.14,108.15,21.53a840.67,840.67,0,0,1,92.11,29.92C864.69,68,884.91,76,904,86.62c36.14,20.16,67.08,46.16,90.09,80.89,13.24,20,22.53,41.75,26.75,65.41,1.8,10.12,2.57,20.44,3.49,30.7,1.09,12.15,1.89,24.33,2.72,36.5.51,7.4.87,14.81,1.22,22.22q1.14,23.94,2.2,47.86c.26,5.82.4,11.65.57,17.48,1.78,62.5,2.48,125,1.64,187.55-.32,23.41-1,46.81-1.67,70.21-.51,16.61-1.4,33.22-2.17,49.83-1.19,25.68-4.79,50.92-13.5,75.27a197,197,0,0,1-39.45,66c-17,18.87-36.68,34.39-58.26,47.58A609.43,609.43,0,0,1,826,929.58,706.15,706.15,0,0,1,707.2,965.24q-25.43,5.31-51.16,9.07c-15.57,2.3-31.27,3.75-46.93,5.31a812.24,812.24,0,0,1-100.24,3.31q-23.64-.58-47.26-2.36c-16.91-1.29-33.83-2.81-50.63-5.08-20.41-2.76-40.75-6.11-61-9.74a831.88,831.88,0,0,1-86.55-20.67c-37.55-11-74.47-23.69-109.36-41.68-25.45-13.12-49.52-28.34-71.24-47.06-20.57-17.74-38.25-37.93-51.15-62-10-18.69-16.69-38.52-18.8-59.69-1.55-15.5-2.79-31-4-46.55S6.49,657,5.51,641.49c-.9-14.25-1.64-28.51-2.3-42.76C2.54,584,1.92,569.26,1.5,554.52.87,532.06.43,509.6,0,490.81ZM530.41,933.5a609.17,609.17,0,0,0,82.15-3.32c13.12-1.41,26.29-2.67,39.31-4.76Q677.52,921.31,703,916a609.76,609.76,0,0,0,81.43-23.49A554.91,554.91,0,0,0,866,855.41c19.62-11,38.55-22.95,55.51-37.82,20.31-17.83,36-38.94,45.56-64.38,7.62-20.21,11-41.24,12.21-62.66,1.23-22.6,2.14-45.23,2.87-67.86.75-23.48,1.5-47,1.57-70.46q.19-68.69-.46-137.37c-.25-25.27-1.38-50.54-2.19-75.8-.27-8.35-.72-16.7-1.26-25-.8-12.37-1.87-24.71-2.61-37.08a178.84,178.84,0,0,0-4.89-33.59c-6.78-26.56-20-49.62-38.3-69.85-19.83-22-43.59-38.78-69.85-52.07-25.47-12.89-52.18-22.8-79.17-32a804,804,0,0,0-101.7-27.07q-39.84-8-80.27-11.93c-16.33-1.59-32.74-2.7-49.14-3.4-26.48-1.12-53-1.16-79.45.93-17.48,1.39-35,2.67-52.41,4.6-16.84,1.87-33.69,4-50.36,7-21.19,3.76-42.38,7.79-63.26,13-21.6,5.36-43,11.7-64.18,18.57A484.34,484.34,0,0,0,154,130.79c-19.5,11.09-37.89,23.66-53.41,40.1-18.52,19.62-30.11,42.69-34.2,69.29Q61,275.29,56.83,310.62c-2.09,18.07-3.34,36.25-4.57,54.4-1.06,15.56-1.73,31.14-2.26,46.72-.48,13.9-.69,27.82-.72,41.73-.05,23.41-.1,46.82.29,70.23.33,19.16,1.27,38.31,2,57.46.33,8.54.78,17.08,1.28,25.61.64,10.68,1.38,21.36,2.09,32,.61,9.09,1.16,18.18,1.89,27.25,1,12.25,2.22,24.48,3.15,36.73.87,11.32,2.16,22.55,4.93,33.58,7.38,29.43,22.49,54.41,43.72,75.84,15,15.18,32.1,27.69,50.45,38.54,26.19,15.48,54.12,27,82.85,36.77a746.83,746.83,0,0,0,86.78,24.23c22.8,4.8,45.77,8.86,68.76,12.66,14,2.32,28.22,3.82,42.39,5.16,16.9,1.61,33.84,3,50.79,3.8C503.89,934,517.16,933.5,530.41,933.5Z"/><path class="cls-1" d="M521,551.85c.06-1.37.18-2.74.18-4.11q0-101.28,0-202.55A48.25,48.25,0,0,1,527,322.53c13.23-25.14,33.24-42.49,60.32-51.4a67.49,67.49,0,0,1,21.36-3c65.63.08,131.27,0,196.9.23,12.48,0,24.5,3.33,36,8.31,21.68,9.43,38.85,24,50.31,44.89a52.42,52.42,0,0,1,6.75,25.8c-.12,94.41.19,188.82-.28,283.23-.12,24.68-9.13,46.38-28.26,63-12.26,10.65-26.61,17-42.68,18.38-13.83,1.14-27.78.87-41.68,1.11-6.11.11-12.23.07-18.33-.17a9.17,9.17,0,0,1-4.84-1.78q-43.75-33.43-87.41-67c-13.57-10.4-27.18-20.73-40.76-31.11-.82-.62-1.59-1.3-2.6-2.13l55.37-67.07c3.16,2.39,6.14,4.62,9.09,6.88q41.6,31.85,83.21,63.68a46.65,46.65,0,0,0,6.74,4.56c3.54,1.83,7,.87,8.42-2.83a56.67,56.67,0,0,0,3.58-14.31c.71-7.84.68-15.76.68-23.65q.06-93.09,0-186.19c0-10.17-4.44-17.86-13.29-22.87a25.85,25.85,0,0,0-12.88-3.45c-41.57,0-83.13.16-124.69-.11-13.71-.09-22.13,8.07-25.25,19.41a56.81,56.81,0,0,0-1.84,14.71c-.13,71.09,0,142.18-.22,213.27,0,4.49,1.53,7.07,4.93,9.72,14.14,11,28,22.36,42,33.58L736,711.08a3.6,3.6,0,0,1,1.3,2.06h-8.79q-59.67,0-119.33,0c-13,0-24.24-5.27-34.75-12.32a142.11,142.11,0,0,1-32.58-30.44c-7.3-9.27-13.64-19.06-17.74-30.18-1-2.61-1.7-5.29-2.56-8-3.1,7.18-5.86,14.37-9.24,21.24a118.42,118.42,0,0,1-35.47,42.74,123,123,0,0,1-52.7,22.72,134.1,134.1,0,0,1-37.3,1.63,130.43,130.43,0,0,1-35.73-8.25c-3.09-1.24-5.62-4-8.27-6.18q-34-28.32-67.9-56.69-17.52-14.64-35-29.32a25,25,0,0,1-1.85-2h4.36q84.2,0,168.41,0a32.34,32.34,0,0,0,9.41-1.27c7.21-2.23,10.4-8.27,8.76-15.69-2.18-9.81-8.05-17.39-14.65-24.6-6.93-7.56-15.78-12.67-23.65-19q-25.83-20.91-51.45-42.09c-15.91-13.17-31.95-26.21-47.42-39.89-17.79-15.74-28.75-35.65-32.92-59.09-4.74-26.69-.63-52.27,10.69-76.74,9.82-21.21,24-38.9,43.29-52.33C327.7,277,344,270.39,362.07,268.85c8-.69,16.14-.62,24.21-.62q65.31,0,130.62.09H521c-1.48,3.2-2.73,6-4,8.72-12.7,27-25.67,53.85-37.92,81-2.92,6.47-6.17,8.46-13.21,8.36-31.21-.47-62.44-.21-93.66-.2-9.13,0-18.14,6-21.27,14.46-3,8-.54,15.08,5.14,20.61a308.63,308.63,0,0,0,25.31,22.37c15.59,12.21,31.79,23.63,47.44,35.77,15.5,12,30.94,24.17,45.84,36.92,14.59,12.48,27.69,26.49,38.17,42.73,2.69,4.16,5.06,8.53,7.57,12.8Z"/><path class="cls-1" d="M125.79,711.76V406.1h105c0,.91.14,1.73.14,2.55Q231,559,231,709.3c0,2.19-.74,2.7-2.77,2.7q-49.92-.07-99.84,0C127.6,712,126.77,711.83,125.79,711.76Z"/><path class="cls-1" d="M124.7,268.29H229.85v3.3c0,29.79,0,59.59.06,89.38,0,2.55-.63,3.4-3.25,3.4q-49.5-.12-99,0c-2.12,0-3.21-.34-3.2-2.89q.1-45.82,0-91.64A15.07,15.07,0,0,1,124.7,268.29Z"/></g></g></g></svg>